REM DIRINDEX 1\4,1\2\5,1\2\6,1\3\7,1\3\8,1\3\9,1\3\10
REM DIRNAME cjc107,folder01,folder02,folder03,folder04,folder05,folder06,folder07,folder08,folder09
TITLE ""
FILE "DISC2Track12.mp3" MP3
  TRACK 01 AUDIO
    TITLE "0:"
    INDEX 01 00:00:00
  TRACK 02 AUDIO
    TITLE "7:cjc107_1471"
    INDEX 01 00:00:01
  TRACK 03 AUDIO
    TITLE "0:"
    INDEX 01 00:02:67
  TRACK 04 AUDIO
    TITLE "8:cjc107_1472"
    INDEX 01 00:03:74
  TRACK 05 AUDIO
    TITLE "0:"
    INDEX 01 00:05:20
  TRACK 06 AUDIO
    TITLE "9:cjc107_1473"
    INDEX 01 00:05:24
  TRACK 07 AUDIO
    TITLE "0:"
    INDEX 01 00:06:43
  TRACK 08 AUDIO
    TITLE "8:cjc107_1474"
    INDEX 01 00:07:13
  TRACK 09 AUDIO
    TITLE "0:"
    INDEX 01 00:08:30
  TRACK 10 AUDIO
    TITLE "9:cjc107_1475"
    INDEX 01 00:08:32
  TRACK 11 AUDIO
    TITLE "0:"
    INDEX 01 00:10:68
  TRACK 12 AUDIO
    TITLE "8:cjc107_1476"
    INDEX 01 00:11:37
  TRACK 13 AUDIO
    TITLE "0:"
    INDEX 01 00:12:52
  TRACK 14 AUDIO
    TITLE "9:cjc107_1477"
    INDEX 01 00:12:54
  TRACK 15 AUDIO
    TITLE "0:"
    INDEX 01 00:14:00
  TRACK 16 AUDIO
    TITLE "8:cjc107_1478"
    INDEX 01 00:14:47
  TRACK 17 AUDIO
    TITLE "0:"
    INDEX 01 00:15:54
  TRACK 18 AUDIO
    TITLE "9:cjc107_1479"
    INDEX 01 00:15:58
  TRACK 19 AUDIO
    TITLE "0:"
    INDEX 01 00:18:19
  TRACK 20 AUDIO
    TITLE "8:cjc107_1480"
    INDEX 01 00:18:66
  TRACK 21 AUDIO
    TITLE "0:"
    INDEX 01 00:20:06
  TRACK 22 AUDIO
    TITLE "9:cjc107_1481"
    INDEX 01 00:20:16
  TRACK 23 AUDIO
    TITLE "0:"
    INDEX 01 00:21:51
  TRACK 24 AUDIO
    TITLE "8:cjc107_1482"
    INDEX 01 00:22:23
  TRACK 25 AUDIO
    TITLE "0:"
    INDEX 01 00:23:40
  TRACK 26 AUDIO
    TITLE "9:cjc107_1483"
    INDEX 01 00:23:44
  TRACK 27 AUDIO
    TITLE "0:"
    INDEX 01 00:24:59
  TRACK 28 AUDIO
    TITLE "8:cjc107_1484"
    INDEX 01 00:25:29
  TRACK 29 AUDIO
    TITLE "0:"
    INDEX 01 00:26:52
  TRACK 30 AUDIO
    TITLE "9:cjc107_1485"
    INDEX 01 00:26:58
  TRACK 31 AUDIO
    TITLE "0:"
    INDEX 01 00:28:13
  TRACK 32 AUDIO
    TITLE "8:cjc107_1486"
    INDEX 01 00:28:53
  TRACK 33 AUDIO
    TITLE "0:"
    INDEX 01 00:29:74
  TRACK 34 AUDIO
    TITLE "9:cjc107_1487"
    INDEX 01 00:30:01
  TRACK 35 AUDIO
    TITLE "0:"
    INDEX 01 00:31:33
  TRACK 36 AUDIO
    TITLE "8:cjc107_1488"
    INDEX 01 00:32:01
  TRACK 37 AUDIO
    TITLE "0:"
    INDEX 01 00:33:11
  TRACK 38 AUDIO
    TITLE "9:cjc107_1489"
    INDEX 01 00:33:15
  TRACK 39 AUDIO
    TITLE "0:"
    INDEX 01 00:34:53
  TRACK 40 AUDIO
    TITLE "8:cjc107_1490"
    INDEX 01 00:35:17
  TRACK 41 AUDIO
    TITLE "0:"
    INDEX 01 00:36:38
  TRACK 42 AUDIO
    TITLE "9:cjc107_1491"
    INDEX 01 00:36:42
  TRACK 43 AUDIO
    TITLE "0:"
    INDEX 01 00:39:09
  TRACK 44 AUDIO
    TITLE "8:cjc107_1492"
    INDEX 01 00:39:54
  TRACK 45 AUDIO
    TITLE "0:"
    INDEX 01 00:41:00
  TRACK 46 AUDIO
    TITLE "9:cjc107_1493"
    INDEX 01 00:41:06
  TRACK 47 AUDIO
    TITLE "0:"
    INDEX 01 00:42:12
  TRACK 48 AUDIO
    TITLE "8:cjc107_1494"
    INDEX 01 00:42:57
  TRACK 49 AUDIO
    TITLE "0:"
    INDEX 01 00:43:52
  TRACK 50 AUDIO
    TITLE "9:cjc107_1495"
    INDEX 01 00:43:56
  TRACK 51 AUDIO
    TITLE "0:"
    INDEX 01 00:45:61
  TRACK 52 AUDIO
    TITLE "8:cjc107_1496"
    INDEX 01 00:46:31
  TRACK 53 AUDIO
    TITLE "0:"
    INDEX 01 00:47:34
  TRACK 54 AUDIO
    TITLE "9:cjc107_1497"
    INDEX 01 00:47:42
  TRACK 55 AUDIO
    TITLE "0:"
    INDEX 01 00:48:48
  TRACK 56 AUDIO
    TITLE "8:cjc107_1498"
    INDEX 01 00:49:21
  TRACK 57 AUDIO
    TITLE "0:"
    INDEX 01 00:50:41
  TRACK 58 AUDIO
    TITLE "9:cjc107_1499"
    INDEX 01 00:50:48
  TRACK 59 AUDIO
    TITLE "0:"
    INDEX 01 00:51:69
  TRACK 60 AUDIO
    TITLE "10:cjc107_1500"
    INDEX 01 00:53:43
  TRACK 61 AUDIO
    TITLE "10:cjc107_1501"
    INDEX 01 00:59:30
  TRACK 62 AUDIO
    TITLE "10:cjc107_1502"
    INDEX 01 01:05:50
  TRACK 63 AUDIO
    TITLE "10:cjc107_1503"
    INDEX 01 01:12:01
  TRACK 64 AUDIO
    TITLE "10:cjc107_1504"
    INDEX 01 01:14:04
  TRACK 65 AUDIO
    TITLE "10:cjc107_1505"
    INDEX 01 01:19:70
  TRACK 66 AUDIO
    TITLE "10:cjc107_1506"
    INDEX 01 01:25:41
  TRACK 67 AUDIO
    TITLE "0:"
    INDEX 01 01:30:73
